# xmcd CD database file
#
# Track frame offsets:
#	150
#	16990
#	32870
#	55821
#	74878
#	96124
#	113635
#	135999
#	160144
#	182836
#
# Disc length: 2711 seconds
#
# Revision: 0
# Processed by: cddbd v1.5.1PL2 Copyright (c) Steve Scherf et al.
# Submitted via: CDex 1.51
#
DISCID=840a950a
DTITLE=GODDESS - Fastable
DYEAR=2003
DGENRE=J-Pop
TTITLE0=喧嘩
TTITLE1=笑顔で光ろう
TTITLE2=淋しさを埋めるために
TTITLE3=ピリオド
TTITLE4=おいでよ
TTITLE5=男と女
TTITLE6=出会いは突然
TTITLE7=優しいあなた
TTITLE8=君が幸せになれるなら
TTITLE9=ブルー リボン
EXTD=YEAR: 2003
EXTT0=
EXTT1=
EXTT2=
EXTT3=
EXTT4=
EXTT5=
EXTT6=
EXTT7=
EXTT8=
EXTT9=
PLAYORDER=
